# File created by Blade
# Date/Time:  Thu Sep 25 21:01:51 2014
# Frame Rate: 120.000 fps
#------------------------------------------------------
:FULLY-SPECIFIED
:DEGREES
3068
root 3.455643 5.641349 -10.505081 5.497310 -41.411287 -13.587990
Spine 41.706885 16.641800 2.664541
Head -10.613294 5.120070 0.503140
LeftShoulder 2.115463 8.557840 12.452398
LeftArm 28.470442 28.026355 -62.419886
LeftForeArm 15.864030 -0.000000 19.736818
LeftHand -41.621823 -0.000000 93.090227
LeftHandThumb1 -26.253704 0.000000 33.147579
RightShoulder -0.664181 31.611355 -26.200856
RightArm 29.989415 -22.472337 57.791390
RightForeArm -23.659397 -0.000000 38.885713
RightHand -4.320103 -0.000000 9.373207
RightHandThumb1 -24.326973 -0.000000 -32.862282
LeftUpLeg -123.458373 -3.176904 -24.475722
LeftLeg 136.124427 -0.000000 -0.000000
LeftFoot -20.025713 6.651141 -2.450001
LeftToeBase -0.892438 -0.000000 0.000000
RightUpLeg -42.711293 0.117192 -56.609546
RightLeg 132.821631 -0.000000 -0.000000
RightFoot 9.780087 -32.535215 9.108703
RightToeBase 12.889604 -0.000000 -0.000000
3069
root 3.365082 5.766383 -10.507978 5.860346 -41.592510 -13.371378
Spine 41.742012 17.161487 1.997808
Head -10.571128 4.493691 0.698700
LeftShoulder 2.378369 8.225515 12.344185
LeftArm 28.496858 27.894226 -61.681778
LeftForeArm 15.614548 -0.000000 19.088794
LeftHand -41.838081 -0.000000 92.690740
LeftHandThumb1 -26.253704 0.000000 33.147579
RightShoulder -0.363630 31.790244 -26.122708
RightArm 30.309601 -22.552208 57.796025
RightForeArm -23.329358 0.000000 38.117600
RightHand -4.143695 0.000000 9.413248
RightHandThumb1 -24.326973 -0.000000 -32.862282
LeftUpLeg -123.522296 -3.217404 -24.060845
LeftLeg 136.216894 -0.000000 -0.000000
LeftFoot -20.386259 7.261432 -2.164672
LeftToeBase -0.359550 -0.000000 0.000000
RightUpLeg -42.972245 -0.123536 -56.225046
RightLeg 132.853971 -0.000000 -0.000000
RightFoot 9.720845 -32.840020 9.411819
RightToeBase 12.754694 -0.000000 -0.000000
3070
root 3.272970 5.895885 -10.512582 6.226735 -41.740556 -13.170266
Spine 41.814275 17.638462 1.287520
Head -10.659543 3.954274 0.980812
LeftShoulder 2.556882 8.012529 12.276326
LeftArm 28.681706 27.634848 -60.950941
LeftForeArm 15.388643 -0.000000 18.462260
LeftHand -42.236733 -0.000000 92.233569
LeftHandThumb1 -26.253704 0.000000 33.147579
RightShoulder -0.119789 31.963925 -26.022830
RightArm 30.731700 -22.694921 57.684747
RightForeArm -22.879583 -0.000000 37.406019
RightHand -4.155493 -0.000000 9.188671
RightHandThumb1 -24.326973 -0.000000 -32.862282
LeftUpLeg -123.536583 -3.189452 -23.547415
LeftLeg 136.280146 -0.000000 -0.000000
LeftFoot -20.774639 7.736658 -1.830040
LeftToeBase -0.485499 -0.000000 0.000000
RightUpLeg -43.170897 -0.399789 -55.805048
RightLeg 132.904396 -0.000000 -0.000000
RightFoot 9.453679 -33.203559 9.992358
RightToeBase 12.203099 -0.000000 -0.000000
3071
root 3.181963 6.028951 -10.516727 6.615695 -41.860325 -12.933246
Spine 41.830555 18.054491 0.484627
Head -10.829446 3.466976 1.198324
LeftShoulder 2.795482 7.730112 12.237750
LeftArm 28.677961 27.520564 -60.187322
LeftForeArm 15.004017 -0.000000 17.981854
LeftHand -42.639198 -0.000000 91.956408
LeftHandThumb1 -26.253704 0.000000 33.147579
RightShoulder 0.129631 32.222833 -26.035690
RightArm 30.919337 -22.461857 58.117988
RightForeArm -22.869576 -0.000000 36.635524
RightHand -3.937756 0.000000 9.334240
RightHandThumb1 -24.326973 -0.000000 -32.862282
LeftUpLeg -123.582904 -3.180757 -23.037004
LeftLeg 136.363135 -0.000000 -0.000000
LeftFoot -21.145191 7.894019 -2.174945
LeftToeBase -0.956435 -0.000000 0.000000
RightUpLeg -43.368923 -0.721732 -55.397173
RightLeg 132.922111 -0.000000 -0.000000
RightFoot 9.237468 -33.581228 10.448925
RightToeBase 11.644371 -0.000000 -0.000000
3072
root 3.089161 6.168033 -10.531227 7.048945 -42.075241 -12.677118
Spine 41.815171 18.605009 -0.457380
Head -11.160080 3.022331 1.588786
LeftShoulder 2.963749 7.461242 12.288559
LeftArm 28.715049 27.284810 -59.450676
LeftForeArm 14.734557 -0.000000 17.511812
LeftHand -43.004174 -0.000000 91.410272
LeftHandThumb1 -26.253704 0.000000 33.147579
RightShoulder 0.405944 32.525878 -25.925171
RightArm 31.113144 -22.559293 58.074469
RightForeArm -22.354084 -0.000000 36.196523
RightHand -3.782805 -0.000000 9.359293
RightHandThumb1 -24.326973 -0.000000 -32.862282
LeftUpLeg -123.677152 -3.116496 -22.613372
LeftLeg 136.400957 -0.000000 -0.000000
LeftFoot -21.556070 8.409985 -2.267019
LeftToeBase -1.048174 -0.000000 0.000000
RightUpLeg -43.728020 -1.046007 -54.976902
RightLeg 132.968274 -0.000000 -0.000000
RightFoot 9.051333 -33.932587 10.831090
RightToeBase 11.336060 -0.000000 -0.000000
3073
root 2.990203 6.308041 -10.542472 7.518252 -42.265853 -12.480561
Spine 41.766516 19.129119 -1.380641
Head -11.491293 2.610541 2.030904
LeftShoulder 3.154665 7.308065 12.369956
LeftArm 28.770198 27.023008 -58.690222
LeftForeArm 14.387309 -0.000000 17.143591
LeftHand -43.512720 -0.000000 90.610473
LeftHandThumb1 -26.253704 0.000000 33.147579
RightShoulder 0.671776 32.759003 -25.824682
RightArm 31.359971 -22.630746 58.060035
RightForeArm -21.804432 -0.000000 35.729805
RightHand -3.826743 -0.000000 9.171959
RightHandThumb1 -24.326973 -0.000000 -32.862282
LeftUpLeg -123.783075 -3.005728 -22.046907
LeftLeg 136.485040 -0.000000 -0.000000
LeftFoot -21.929496 8.736332 -2.213886
LeftToeBase -1.148987 -0.000000 0.000000
RightUpLeg -44.057607 -1.403486 -54.492528
RightLeg 132.974896 -0.000000 -0.000000
RightFoot 8.822016 -34.400501 11.412022
RightToeBase 11.061684 -0.000000 -0.000000
3074
root 2.894124 6.454538 -10.555476 7.968442 -42.497802 -12.220181
Spine 41.727804 19.730498 -2.413307
Head -11.972213 2.209378 2.580879
LeftShoulder 3.336893 7.150268 12.484553
LeftArm 28.826425 26.747848 -57.893355
LeftForeArm 14.147223 -0.000000 16.827145
LeftHand -43.844742 0.000000 90.123887
LeftHandThumb1 -26.253704 0.000000 33.147579
RightShoulder 0.890153 32.976994 -25.690815
RightArm 31.604372 -22.579355 58.018225
RightForeArm -21.658623 -0.000000 35.379611
RightHand -3.739908 -0.000000 9.277969
RightHandThumb1 -24.326973 -0.000000 -32.862282
LeftUpLeg -123.898379 -2.848218 -21.510076
LeftLeg 136.541705 -0.000000 -0.000000
LeftFoot -22.215708 8.940883 -2.187226
LeftToeBase -1.469276 -0.000000 0.000000
RightUpLeg -44.421892 -1.672334 -54.062285
RightLeg 132.996767 -0.000000 -0.000000
RightFoot 8.485719 -34.703636 12.123856
RightToeBase 10.809148 -0.000000 -0.000000
